<mxfile host="app.diagrams.net" modified="2024-03-27T23:05:34.241Z" agent="Mozilla/5.0 (X11; Linux x86_64; rv:121.0) Gecko/20100101 Firefox/121.0" version="24.2.0" etag="jZUea-Q7nbxndTlQq9QZ" type="github">
  <diagram name="Page-1" id="S0GgcXxfvUJKG-NJt2yR">
    <mxGraphModel>
      <root>
        <mxCell id="0" />
        <mxCell id="1" parent="0" />
      </root>
    </mxGraphModel>
  </diagram>
</mxfile>
